<svg id="b00cf06d-5443-4ca9-bed8-b84708b32a60" data-name="Layer 1" xmlns="http://www.w3.org/2000/svg" width="555" height="70" viewBox="0 0 555 70"><defs><style>.f26e0ff1-1078-4bd3-be44-9bae0c1a35c5{fill:#e00;}</style></defs><path d="M447.09,58.75c.23,0,.37-.11.37-.32v-.22c0-.22-.14-.32-.37-.32h-.55v.86Zm-.55,1.6h-.75V57.3h1.39a.92.92,0,0,1,1,1,.89.89,0,0,1-.55.91l.68,1.17h-.81L447,59.3h-.42v1.05ZM449.2,59v-.38a2.23,2.23,0,0,0-4.45,0V59a2.23,2.23,0,0,0,4.45,0Zm-5.14-.19a2.92,2.92,0,1,1,2.91,3,2.93,2.93,0,0,1-2.91-3Zm-42-48.13-1.33-3.82H378.91v3.82ZM404.62,18l-1.33-3.82H378.91V18Zm16.25,43.7H440V57.83H420.87v3.82Zm0-7.28H440V50.55H420.87v3.82Zm0-7.29h11.45V43.27H420.87v3.81ZM432.32,36H420.87V39.8h11.45V36Zm-11.45-3.46h11.45V28.7H410.5l-1.07,3.08-1.07-3.08H386.54v3.82H398V29l1.23,3.51h20.43L420.87,29v3.51Zm11.45-11.1H413l-1.33,3.81h20.61V21.42ZM386.54,39.8H398V36H386.54V39.8Zm0,7.28H398V43.27H386.54v3.81Zm-7.63,7.29H398V50.55H378.91v3.82Zm0,7.28H398V57.83H378.91v3.82ZM418.1,6.85l-1.33,3.82H440V6.85ZM414.24,18H440V14.13H415.57L414.24,18Zm-27.7,7.28h20.61l-1.32-3.81H386.54v3.81ZM401.77,39.8h15.32L418.43,36h-18l1.34,3.82Zm2.56,7.28h10.2l1.34-3.81H403l1.34,3.81Zm2.56,7.29H412l1.34-3.82h-7.77l1.35,3.82Zm2.53,7.28,1.33-3.82H408.1l1.32,3.82Zm-76.29,0h28.09A14.43,14.43,0,0,0,371,57.83H333.13v3.82ZM363,43.27v3.81h12.84a14.48,14.48,0,0,0-.51-3.81Zm-22.19,3.81H352.2V43.27H340.76v3.81ZM363,25.23h12.33a14.48,14.48,0,0,0,.51-3.81H363v3.81Zm-22.19,0H352.2V21.42H340.76v3.81ZM361.22,6.85H333.13v3.82H371a14.47,14.47,0,0,0-9.82-3.82Zm12.61,7.28h-40.7V18h42.24a14.5,14.5,0,0,0-1.54-3.82ZM340.76,28.7v3.82h29.89a14.82,14.82,0,0,0,3.18-3.82ZM370.65,36H340.76V39.8h33.07A14.82,14.82,0,0,0,370.65,36ZM333.13,54.37h40.7a14.5,14.5,0,0,0,1.54-3.82H333.13v3.82ZM302.6,10.67h26.71V6.85H302.6v3.82Zm0,7.28h26.71V14.13H302.6V18Zm19.08,3.47H310.23v3.81h11.45V21.42Zm-11.45,11.1h11.45V28.7H310.23v3.82Zm0,7.28h11.45V36H310.23V39.8Zm0,7.28h11.45V43.27H310.23v3.81Zm-7.63,7.29h26.71V50.55H302.6v3.82Zm0,3.46h26.71v3.82H302.6V57.83Z"/><polygon points="267.08 68.5 268.35 68.5 268.35 0 267.08 0 267.08 68.5 267.08 68.5"/><path class="f26e0ff1-1078-4bd3-be44-9bae0c1a35c5" d="M60.71,34.08a19.22,19.22,0,0,1,.65,3.86c0,5.33-6,8.29-13.86,8.29-17.8,0-33.39-10.42-33.39-17.31a7.16,7.16,0,0,1,.57-2.79C8.29,26.46,0,27.6,0,34.91c0,12,28.38,26.74,50.86,26.74,17.23,0,21.58-7.79,21.58-13.95,0-4.84-4.19-10.33-11.73-13.62M48.32,38.43c4.76,0,11.65-1,11.65-6.64a5.16,5.16,0,0,0-.12-1.3L57,18.17c-.65-2.71-1.23-3.94-6-6.32-3.7-1.88-11.73-5-14.11-5-2.22,0-2.87,2.87-5.5,2.87S27,7.59,24.61,7.59s-3.77,1.56-4.92,4.76c0,0-3.2,9-3.61,10.33a2.45,2.45,0,0,0-.09.74c0,3.51,13.82,15,32.33,15"/><path d="M60.71,34.08a19.22,19.22,0,0,1,.65,3.86c0,5.33-6,8.29-13.86,8.29-17.8,0-33.39-10.42-33.39-17.31a7.16,7.16,0,0,1,.57-2.79l1.4-3.45a2.45,2.45,0,0,0-.09.74c0,3.51,13.82,15,32.33,15,4.76,0,11.65-1,11.65-6.64a5.16,5.16,0,0,0-.12-1.3l.86,3.59Z"/><path d="M85.82,48.42H92.7V38.21H98l5.28,10.21h7.68l-6.16-11.21A8.47,8.47,0,0,0,110,29.33c0-5-4-8.93-9.88-8.93H85.82v28ZM99.51,26.29c2.28,0,3.56,1.44,3.56,3.16s-1.28,3.16-3.56,3.16H92.7V26.29Zm11.16,11.56c0,6.17,5,11,11.53,11a12.7,12.7,0,0,0,8.84-3.2l-4.28-3.8a5.73,5.73,0,0,1-4.24,1.6,5.46,5.46,0,0,1-5.2-3.37H132.4v-1.6c0-6.72-4.52-11.56-10.68-11.56a10.87,10.87,0,0,0-11,11m10.93-5.68A4.68,4.68,0,0,1,126,35.53H117.2a4.41,4.41,0,0,1,4.4-3.36M151,48.42h6.41V19l-6.49,1.4v8a10.91,10.91,0,1,0-5.6,20.33A9.54,9.54,0,0,0,151,46.86v1.56ZM140.85,37.81a5.36,5.36,0,0,1,5.56-5.36,6.56,6.56,0,0,1,4.48,1.64V41.5a6.23,6.23,0,0,1-4.48,1.68,5.38,5.38,0,0,1-5.56-5.37m26.23,10.61H174v-11h11.53v11h6.88v-28h-6.88V31.17H174V20.4h-6.88v28Zm35.18.36a9.9,9.9,0,0,0,5.84-1.64v1.28h6.4V34.85c0-5.16-3.48-8-9.28-8a23.62,23.62,0,0,0-9.89,2.32l2.32,4.76a17.38,17.38,0,0,1,6.41-1.68c2.68,0,4,1,4,3.16v1a18.79,18.79,0,0,0-4.8-.6c-5.45,0-8.73,2.28-8.73,6.37,0,3.72,3,6.56,7.69,6.56m-2-6.68c0-1.4,1.4-2.09,3.52-2.09a15.74,15.74,0,0,1,3.84.49v2.72a8.18,8.18,0,0,1-4,1c-2.08,0-3.32-.8-3.32-2.12M220.43,42c0,4.52,2.72,6.72,7.68,6.72a19.86,19.86,0,0,0,4.52-.64V42.82a9.42,9.42,0,0,1-2.92.44c-2,0-2.8-.64-2.8-2.56V32.65h5.92v-5.4h-5.92V20.4l-6.48,1.41v5.44h-4.29v5.4h4.29V42Z"/></svg>